<svg xmlns="http://www.w3.org/2000/svg" width="1000" height="1172.573"><defs><clipPath id="a"><path d="M0 3699V-.16h3218.63V3699z" clip-rule="evenodd"/></clipPath><clipPath id="b"><path d="M0-.162h3218.631V3699H0Z" clip-rule="evenodd"/></clipPath></defs><g clip-path="url(#a)" transform="translate(0 .05) scale(.31698)"><g clip-path="url(#b)"><path fill="#07219B" d="M3154.74 670.646c0-349.987-199.299-563.867-709.696-636.781l-68.052 486.092c97.218 24.305 286.794 102.08 286.794 296.516 0 218.742-223.602 320.821-379.152 364.57l-34.027 277.072 403.457 631.92 228.464-43.748-277.073-690.251c247.907-77.775 549.284-330.543 549.284-685.39"/><path fill="#F20C90" d="M2313.8 14.421 1793.68-.162l29.166 2061.032 262.49 29.166zM1229.813 1078.963s330.543-136.105 330.543-456.927c0-388.873-330.543-578.449-738.86-578.449-48.61 0-102.08 0-155.55 4.86l9.722 452.067c233.324-19.444 437.483 58.33 437.483 277.072 0 194.437-199.298 272.212-374.29 277.073l24.304 243.046c247.907-4.86 413.178 116.662 422.9 281.934 9.722 194.437-150.688 320.821-481.231 296.516l4.86 213.88h121.524c476.37 0 806.913-272.211 806.913-597.893-4.86-223.603-155.55-364.569-408.318-413.179"/><path fill="#07219B" d="M529.84 58.17 0 131.083 359.708 2065.73l262.49 19.443zm1813.126 2391.575c43.747 0 77.774-34.027 77.774-77.777-4.86-43.746-43.75-72.914-82.637-72.914-43.746 0-77.773 34.028-77.773 77.777 0 38.887 38.887 72.914 82.636 72.914m-1852.014 0c-43.746 4.86-82.635 19.442-116.66 43.746l-19.445-189.574-136.105 14.582 87.496 656.225 131.246-14.585-9.723-48.61c38.887 14.586 82.637 19.446 126.383 14.586 140.968-19.445 243.047-140.968 223.605-272.213-14.583-131.243-145.828-223.602-286.797-204.157m48.61 345.124c-63.191 9.723-126.383-34.027-136.106-97.218-4.86-58.332 43.75-116.664 106.942-126.383 63.191-4.863 126.382 38.887 136.105 97.218 9.722 58.33-43.75 116.661-106.941 126.383m670.807-257.629c-34.024-19.444-77.774-34.026-121.523-34.026-140.965-4.86-262.489 97.218-272.21 228.464-4.86 131.246 102.077 247.906 243.045 252.768 43.75 0 82.636-4.862 121.524-24.304l-4.86 48.61 136.105 4.86 38.887-520.12-136.106-4.86zm-140.965 320.82c-68.054-4.86-121.523-58.33-116.664-121.522 0-63.192 63.192-111.8 126.386-106.941 68.051 4.863 121.523 63.194 116.66 121.523 0 58.331-58.33 111.804-126.382 106.94m573.588-379.15c9.723 0 9.723-4.86 19.445-4.86l-38.89-87.5c-9.72 0-9.72 4.863-19.441 4.863-140.969 34.024-223.605 136.106-179.855 223.602l87.496 189.577c19.444 43.746-19.442 92.355-87.496 106.938-9.723 0-9.723 4.862-19.445 4.862l38.89 87.496c9.72-4.86 9.72-4.86 19.441-4.86 140.969-34.027 223.605-136.108 179.855-223.604l-87.496-189.573c-19.445-38.89 19.442-92.36 87.496-106.942m539.562.001-97.219-87.496-238.184 243.046 29.165-398.597-136.106-9.722-43.75 719.416 262.492-238.184 140.968 179.855 106.938-72.914-150.687-204.16zm92.358 14.582 14.583 442.342 136.108-4.859-14.585-442.344zm583.311 0-4.86 238.186-320.822-330.542-24.305 529.839h136.108l4.86-238.184 315.96 335.402 29.164-534.702zm-704.833 481.232c-43.75-4.863-77.774 24.305-77.774 63.192-4.863 38.886 29.164 72.913 68.05 72.913 38.888 4.86 77.777-24.304 77.777-63.191s-29.167-72.914-68.054-72.914M563.867 3237.212h14.582l-9.72-140.965h-14.585c-48.61 4.86-92.356 19.442-131.243 43.747l-4.862-58.329-160.41 14.582 48.61 559.007 150.687-9.723-19.442-272.21c-4.863-68.055 53.469-131.246 126.383-136.109m213.882-38.887c-131.246 4.863-233.324 102.082-228.465 218.742 0 121.523 106.941 213.882 233.324 213.882 126.386 0 228.464-97.219 228.464-218.742s-106.94-213.882-233.323-213.882m0 320.823c-58.332 0-106.941-48.61-111.801-102.08 0-53.47 48.609-102.079 106.938-102.079 58.331 0 111.803 48.609 111.803 102.078 0 53.472-48.609 102.081-106.94 102.081m515.256-281.936c-43.747 0-77.774 9.723-111.8 24.305l4.86-184.715-121.524-4.86-14.582 597.894 121.523 4.86v-38.887c29.167 19.444 68.054 29.167 106.94 29.167 126.384 4.86 233.325-92.359 238.187-209.022 4.86-116.66-97.218-213.88-223.604-218.742m-9.722 320.823c-58.329 0-106.938-48.61-106.938-102.081 0-58.329 53.469-102.078 111.8-102.078 58.332 0 111.8 48.609 106.941 106.94 0 53.47-53.472 97.219-111.803 97.219m495.815-422.901c-38.887 0-77.774 9.722-106.941 29.164l-4.86-179.851-121.523 4.86 24.304 597.892 111.8-4.86v-38.886c34.028 19.442 72.915 24.304 111.802 24.304 126.385-4.862 228.464-106.94 223.604-223.604-4.863-121.523-111.8-213.88-238.186-209.019m14.582 315.96c-58.329 4.86-111.801-43.75-111.801-97.219 0-53.469 48.61-106.94 106.94-106.94 58.332-4.86 106.942 43.75 111.802 97.218 0 58.332-48.61 106.94-106.941 106.94m262.491 87.497 121.523 4.86 24.304-398.593-121.523-4.863zm539.561-189.574-301.375-345.128-4.863 524.98h121.523v-213.88l291.656 315.96 14.586-495.814h-121.527Zm325.683-72.914c-19.442-43.75 19.445-92.359 82.636-102.081 9.722 0 9.722 0 19.445-4.86l-38.89-92.359c-9.72 0-9.72 0-19.442 4.863-136.105 24.304-218.741 126.383-179.855 218.741l82.637 199.297c19.441 43.75-19.445 92.36-82.637 102.078-9.722 0-9.722 0-19.445 4.863l38.89 92.356c9.72 0 9.72 0 19.442-4.86 140.968-24.304 218.742-126.382 179.855-218.741z"/></g></g></svg>